<svg xmlns="http://www.w3.org/2000/svg" id="Ebene_1" x="0" y="0" version="1.1" viewBox="0 0 108.1 104" xml:space="preserve">
  <defs/>
  <style>
    .st7{fill:#3c3c3b}.st8{fill:#b2b2b2}.st10{fill:#353536}
  </style>
  <linearGradient id="SVGID_1_" x1="7.73" x2="7.73" y1="89.03" y2="73.19" gradientUnits="userSpaceOnUse">
    <stop offset="0" stop-color="#7abd6d"/>
    <stop offset="1" stop-color="#38b9c3"/>
  </linearGradient>
  <path fill="url(#SVGID_1_)" d="M12.3 86.1c-.4.4-.8.7-1.2.9-.4.2-.9.4-1.3.5-.5.1-.9.2-1.4.2-.8 0-1.6-.2-2.3-.5-.7-.4-1.3-.8-1.8-1.5a6.96 6.96 0 01-1.8-4.6c0-.8.1-1.6.4-2.3.2-.8.6-1.5 1.1-2.2.5-.6 1.1-1.1 1.8-1.5.7-.4 1.5-.6 2.5-.6.4 0 .9 0 1.3.1s.9.3 1.3.5.8.5 1.2.9c.4.4.7.8.9 1.3l1.2-.7c-.5-1-1.2-1.8-2.2-2.5s-2.2-.9-3.6-.9c-1.2 0-2.2.2-3.1.7-.9.5-1.7 1.1-2.3 1.8-.6.7-1.1 1.6-1.4 2.5-.4.9-.6 1.8-.6 2.8 0 1 .2 2 .5 2.9.4 1 .9 1.8 1.5 2.6s1.4 1.4 2.3 1.8 1.9.7 3 .7c.6 0 1.2-.1 1.8-.2.6-.2 1.2-.4 1.8-.7.6-.3 1.1-.7 1.5-1.1.5-.4.8-1 1.1-1.6l-1.3-.7c-.3.6-.6 1-.9 1.4z"/>
  <linearGradient id="SVGID_2_" x1="21.7" x2="21.7" y1="89.12" y2="77.24" gradientUnits="userSpaceOnUse">
    <stop offset="0" stop-color="#7abd6d"/>
    <stop offset="1" stop-color="#38b9c3"/>
  </linearGradient>
  <path fill="url(#SVGID_2_)" d="M25.8 79c-.5-.5-1.1-1-1.8-1.3s-1.5-.5-2.3-.5-1.6.2-2.3.5a5.94 5.94 0 00-3.4 5.5c0 .8.1 1.5.4 2.3.3.7.7 1.3 1.2 1.9.5.5 1.1 1 1.8 1.3.7.3 1.5.5 2.3.5.8 0 1.6-.2 2.3-.5.7-.3 1.3-.7 1.8-1.3a5.87 5.87 0 001.6-4.2 5.87 5.87 0 00-1.6-4.2zm-.3 6c-.2.6-.5 1-.9 1.5-.4.4-.8.7-1.3 1-.5.2-1 .4-1.6.4-.6 0-1.1-.1-1.6-.4-.5-.2-.9-.6-1.3-1s-.7-.9-.9-1.5c-.2-.6-.3-1.1-.3-1.8 0-.6.1-1.3.3-1.8.2-.6.5-1.1.9-1.5.4-.4.8-.8 1.3-1 .5-.2 1-.4 1.6-.4.6 0 1.1.1 1.6.4.5.2.9.6 1.3 1s.7.9.9 1.5c.2.6.3 1.2.3 1.8.1.6 0 1.2-.3 1.8z"/>
  <linearGradient id="SVGID_3_" x1="34.79" x2="34.79" y1="89.12" y2="77.24" gradientUnits="userSpaceOnUse">
    <stop offset="0" stop-color="#7abd6d"/>
    <stop offset="1" stop-color="#38b9c3"/>
  </linearGradient>
  <path fill="url(#SVGID_3_)" d="M38.9 79c-.5-.5-1.1-1-1.8-1.3-.7-.3-1.5-.5-2.3-.5-.8 0-1.6.2-2.3.5a5.94 5.94 0 00-3.4 5.5c0 .8.1 1.5.4 2.3.3.7.7 1.3 1.2 1.9.5.5 1.1 1 1.8 1.3.7.3 1.5.5 2.3.5.8 0 1.6-.2 2.3-.5.7-.3 1.3-.7 1.8-1.3a5.87 5.87 0 001.6-4.2 5.87 5.87 0 00-1.6-4.2zm-.3 6c-.2.6-.5 1-.9 1.5-.4.4-.8.7-1.3 1-.5.2-1 .4-1.6.4-.6 0-1.1-.1-1.6-.4-.5-.2-.9-.6-1.3-1s-.7-.9-.9-1.5c-.2-.6-.3-1.1-.3-1.8 0-.6.1-1.3.3-1.8.2-.6.5-1.1.9-1.5s.8-.8 1.3-1c.5-.2 1-.4 1.6-.4.6 0 1.1.1 1.6.4.5.2.9.6 1.3 1s.7.9.9 1.5c.2.6.3 1.2.3 1.8.1.6 0 1.2-.3 1.8z"/>
  <linearGradient id="SVGID_4_" x1="47.9" x2="47.9" y1="88.9" y2="72.84" gradientUnits="userSpaceOnUse">
    <stop offset="0" stop-color="#7abd6d"/>
    <stop offset="1" stop-color="#38b9c3"/>
  </linearGradient>
  <path fill="url(#SVGID_4_)" d="M52.6 77.5h-1.7l-6.4 6.3v-11H43v16.1h1.5v-3.6L47 83l4.2 5.9h1.6l-4.9-6.8z"/>
  <linearGradient id="SVGID_5_" x1="55.4" x2="55.4" y1="75.04" y2="72.84" gradientUnits="userSpaceOnUse">
    <stop offset="0" stop-color="#7abd6d"/>
    <stop offset="1" stop-color="#38b9c3"/>
  </linearGradient>
  <path fill="url(#SVGID_5_)" d="M54.7 72.8h1.5V75h-1.5z"/>
  <linearGradient id="SVGID_6_" x1="55.4" x2="55.4" y1="88.9" y2="77.44" gradientUnits="userSpaceOnUse">
    <stop offset="0" stop-color="#7abd6d"/>
    <stop offset="1" stop-color="#38b9c3"/>
  </linearGradient>
  <path fill="url(#SVGID_6_)" d="M54.7 77.4h1.5v11.5h-1.5z"/>
  <linearGradient id="SVGID_7_" x1="64.35" x2="64.35" y1="89.12" y2="77.24" gradientUnits="userSpaceOnUse">
    <stop offset="0" stop-color="#7abd6d"/>
    <stop offset="1" stop-color="#38b9c3"/>
  </linearGradient>
  <path fill="url(#SVGID_7_)" d="M69.6 80.9c-.3-.7-.7-1.3-1.2-1.9-.5-.5-1.1-1-1.8-1.3-.7-.3-1.5-.5-2.3-.5-.8 0-1.6.2-2.3.5-.7.3-1.3.7-1.8 1.3a5.87 5.87 0 00-1.6 4.2 5.87 5.87 0 001.6 4.2c.5.6 1.1 1 1.8 1.3a5.93 5.93 0 003.9.3c.5-.1 1-.3 1.4-.6.4-.3.8-.6 1.1-.9.3-.3.6-.7.7-1.2l-1.1-.4c-.1.3-.3.6-.6.8-.3.3-.5.5-.8.6a3 3 0 01-1 .4c-.4.1-.7.2-1.1.2a3.8 3.8 0 01-2.9-1.2c-.4-.4-.7-.8-.9-1.4-.2-.5-.4-1.1-.4-1.7H70v-.2-.4c.1-.7-.1-1.4-.4-2.1zm-9.4 1.7c0-.6.2-1.2.4-1.7s.5-1 .9-1.3a3.8 3.8 0 012.9-1.2 3.8 3.8 0 012.9 1.2c.4.4.7.8.9 1.3.2.5.4 1.1.4 1.7h-8.4z"/>
  <path d="M84.9 84.9c0 .7-.1 1.2-.4 1.7-.3.5-.6.9-1.1 1.3-.5.3-1 .6-1.6.8-.6.2-1.3.3-1.9.3h-7.5V73.3h8.4c.5 0 1 .1 1.5.4.4.2.8.5 1.1.9a5.39 5.39 0 011 2.7c0 .8-.2 1.5-.6 2.1-.4.7-.9 1.2-1.7 1.5.9.3 1.6.7 2.1 1.4s.7 1.5.7 2.6zm-9.5-9v3.9h4c.5 0 .9-.2 1.3-.5.4-.4.5-.8.5-1.5 0-.6-.2-1.1-.5-1.4-.3-.4-.7-.5-1.2-.5h-4.1zm6.5 8.4c0-.3 0-.5-.1-.8-.1-.3-.2-.5-.4-.7-.2-.2-.4-.3-.6-.5-.2-.1-.5-.2-.7-.2h-4.7v4.1h4.5c.3 0 .5-.1.8-.2.2-.1.5-.2.6-.4.2-.2.3-.4.4-.6s.2-.4.2-.7zM90.2 89.1c-.6 0-1.1-.1-1.6-.3-.5-.2-.9-.4-1.3-.8-.4-.3-.6-.7-.8-1.2-.2-.4-.3-.9-.3-1.5 0-.5.1-1 .4-1.5.2-.5.6-.9 1-1.2.4-.3.9-.6 1.6-.8.6-.2 1.3-.3 2-.3.5 0 1 0 1.5.1s.9.2 1.3.4v-.7c0-.8-.2-1.3-.6-1.8-.4-.4-1.1-.6-1.9-.6a5.66 5.66 0 00-3.6 1.3l-.9-1.9c1.5-1 3.1-1.5 4.8-1.5 1.7 0 2.9.4 3.9 1.2.9.8 1.4 2 1.4 3.5v3.6c0 .3.1.5.2.7.1.1.3.2.5.2v2.5c-.5.1-.9.2-1.3.2-.6 0-1-.1-1.3-.4-.3-.2-.5-.6-.6-1l-.1-.6a4 4 0 01-1.9 1.5c-.8.7-1.6.9-2.4.9zM91 87c.5 0 1-.1 1.4-.3.4-.2.8-.4 1-.7.3-.2.5-.5.5-.8v-1.3l-1.1-.3c-.4-.1-.8-.1-1.2-.1-.8 0-1.4.2-1.9.5s-.7.8-.7 1.3.2.9.6 1.2c.4.3.8.5 1.4.5zM106.5 79.9c-.9 0-1.7.2-2.4.5s-1.2.8-1.5 1.5v7h-2.9V77.4h2.7v2.5c.2-.4.4-.8.7-1.1.3-.3.6-.6.9-.8.3-.2.6-.4 1-.5.3-.1.6-.2 1-.2H106.6v2.6z" class="st7"/>
  <g>
    <path d="M48.3 102.9v-5.8h-.9v-.7h.9v-.2c0-.8.2-1.4.5-1.9s.8-.7 1.4-.7c.3 0 .5 0 .7.1.2.1.5.2.6.3l-.3.6c-.1-.1-.3-.2-.4-.2-.2-.1-.3-.1-.5-.1-.4 0-.7.2-.9.5-.2.3-.3.8-.3 1.3v.2H51v.7h-1.8v5.8h-.9zM54.6 103.1c-.5 0-.9-.1-1.3-.3-.4-.2-.7-.4-1-.7-.3-.3-.5-.7-.7-1.1s-.2-.8-.2-1.3.1-.9.2-1.3c.2-.4.4-.8.7-1.1.3-.3.6-.6 1-.7.4-.2.8-.3 1.3-.3s.9.1 1.3.3c.4.2.7.4 1 .7.3.3.5.7.7 1.1.2.4.2.8.2 1.3s-.1.9-.2 1.3c-.2.4-.4.8-.7 1.1-.3.3-.6.6-1 .7-.4.2-.8.3-1.3.3zm-2.4-3.4c0 .4.1.7.2 1 .1.3.3.6.5.8.2.2.5.4.8.6.3.1.6.2.9.2s.6-.1.9-.2c.3-.1.5-.3.8-.6s.4-.5.5-.8c.1-.3.2-.7.2-1 0-.4-.1-.7-.2-1-.1-.3-.3-.6-.5-.8s-.5-.4-.8-.6c-.3-.1-.6-.2-.9-.2s-.6.1-.9.2c-.3.1-.5.3-.8.6-.2.2-.4.5-.5.8-.1.3-.2.6-.2 1zM62.5 97.2c-.6 0-1.1.2-1.5.5-.4.3-.7.7-.9 1.2v4.1h-.9v-6.5h.8V98c.2-.5.6-.9 1-1.2.4-.3.8-.4 1.3-.4h.2v.8zM66.1 98.4c0-.5.1-1.1.3-1.6.2-.5.5-1 .8-1.4.4-.4.8-.8 1.3-1 .5-.3 1.1-.4 1.8-.4.8 0 1.5.2 2 .5.6.4 1 .8 1.2 1.4l-.7.4c-.1-.3-.3-.5-.5-.7-.2-.2-.4-.4-.7-.5-.2-.1-.5-.2-.7-.3-.3-.1-.5-.1-.7-.1-.5 0-1 .1-1.4.3-.4.2-.8.5-1 .9-.3.3-.5.7-.6 1.2-.1.5-.2.9-.2 1.4 0 .5.1 1 .3 1.4.2.5.4.8.7 1.2.3.3.6.6 1.1.8.4.2.8.3 1.3.3.2 0 .5 0 .8-.1.3-.1.5-.2.8-.3s.5-.3.7-.5c.2-.2.4-.5.5-.7l.7.4c-.1.3-.3.6-.6.9-.3.3-.5.5-.9.6-.3.2-.7.3-1 .4-.4.1-.7.1-1 .1-.6 0-1.2-.1-1.7-.4-.5-.3-.9-.6-1.3-1s-.7-.9-.9-1.5c-.3-.5-.4-1.1-.4-1.7zM77.9 103.1c-.5 0-.9-.1-1.3-.3-.4-.2-.7-.4-1-.7-.3-.3-.5-.7-.7-1.1s-.2-.8-.2-1.3.1-.9.2-1.3c.2-.4.4-.8.7-1.1.3-.3.6-.6 1-.7.4-.2.8-.3 1.3-.3s.9.1 1.3.3c.4.2.7.4 1 .7.3.3.5.7.7 1.1.2.4.2.8.2 1.3s-.1.9-.2 1.3c-.2.4-.4.8-.7 1.1-.3.3-.6.6-1 .7-.4.2-.8.3-1.3.3zm-2.4-3.4c0 .4.1.7.2 1 .1.3.3.6.5.8.2.2.5.4.8.6.3.1.6.2.9.2.3 0 .6-.1.9-.2.3-.1.5-.3.8-.6.2-.2.4-.5.5-.8.1-.3.2-.7.2-1 0-.4-.1-.7-.2-1-.1-.3-.3-.6-.5-.8-.2-.2-.5-.4-.8-.6-.3-.1-.6-.2-.9-.2-.3 0-.6.1-.9.2-.3.1-.5.3-.8.6-.2.2-.4.5-.5.8-.1.3-.2.6-.2 1zM88 102.9h-.9v-3.6c0-.8-.1-1.3-.3-1.7-.2-.4-.6-.5-1.1-.5-.2 0-.5 0-.7.1-.2.1-.5.2-.7.4l-.6.6c-.2.2-.3.5-.4.7v4h-.9v-6.5h.8v1.5c.3-.5.6-.9 1.1-1.1.5-.3 1-.4 1.6-.4.4 0 .7.1.9.2.2.1.5.3.6.6.2.2.3.5.3.9.1.4.1.7.1 1.2v3.6zM92.9 102.6s-.1.1-.2.1-.2.1-.3.1c-.1 0-.3.1-.4.1-.2 0-.3.1-.5.1s-.4 0-.5-.1c-.2-.1-.3-.1-.4-.2-.1-.1-.2-.2-.3-.4-.1-.2-.1-.3-.1-.6V97h-.9v-.7h.7v-2.2h.8v2.2h1.5v.7h-1.5v4.4c0 .2.1.4.3.5.2.1.3.2.5.2s.5 0 .6-.1c.2-.1.3-.1.3-.2l.4.8zM95.6 103.1c-.3 0-.6-.1-.9-.2-.3-.1-.5-.2-.7-.4s-.3-.4-.5-.6c-.1-.2-.2-.5-.2-.8 0-.3.1-.5.2-.8.1-.2.3-.4.6-.6.2-.2.5-.3.9-.4.3-.1.7-.1 1.1-.1.3 0 .7 0 1 .1.3.1.6.1.9.2v-.6c0-.6-.2-1-.5-1.4-.3-.3-.8-.5-1.4-.5-.3 0-.7.1-1 .2-.3.1-.7.3-1.1.6l-.3-.6c.8-.6 1.7-.9 2.4-.9.8 0 1.5.2 1.9.7.5.5.7 1.1.7 1.9v2.9c0 .2.1.3.3.3v.8h-.3c-.2 0-.4-.1-.5-.2-.1-.1-.2-.3-.2-.4v-.5c-.3.4-.7.7-1.1.9-.3.3-.8.4-1.3.4zm.2-.7c.4 0 .8-.1 1.2-.2.4-.2.7-.4.8-.7.1-.1.1-.2.2-.2 0-.1.1-.2.1-.2V100l-.9-.3c-.3-.1-.6-.1-.9-.1-.6 0-1.1.1-1.5.4-.4.2-.6.6-.6 1 0 .2 0 .4.1.6.1.2.2.3.3.5.1.1.3.2.5.3h.7zM103.5 103.1c-.5 0-.9-.1-1.3-.3-.4-.2-.7-.4-1-.7-.3-.3-.5-.7-.7-1.1-.2-.4-.2-.8-.2-1.3s.1-.9.2-1.3c.2-.4.4-.8.7-1.1.3-.3.6-.6 1-.7.4-.2.8-.3 1.3-.3s.9.1 1.3.3c.4.2.7.4 1 .7.3.3.5.7.7 1.1.2.4.2.8.2 1.3s-.1.9-.2 1.3-.4.8-.7 1.1c-.3.3-.6.6-1 .7-.3.2-.8.3-1.3.3zm-2.3-3.4c0 .4.1.7.2 1 .1.3.3.6.5.8.2.2.5.4.8.6.3.1.6.2.9.2s.6-.1.9-.2c.3-.1.5-.3.8-.6.2-.2.4-.5.5-.8.1-.3.2-.7.2-1 0-.4-.1-.7-.2-1-.1-.3-.3-.6-.5-.8-.2-.2-.5-.4-.8-.6-.3-.1-.6-.2-.9-.2s-.6.1-.9.2c-.3.1-.5.3-.8.6-.2.2-.4.5-.5.8-.2.3-.2.6-.2 1z" class="st8"/>
  </g>
  <g>
    <linearGradient id="SVGID_8_" x1="41.16" x2="41.16" y1="39.3" y2="13.78" gradientUnits="userSpaceOnUse">
      <stop offset="0" stop-color="#7abd6d"/>
      <stop offset="1" stop-color="#38b9c3"/>
    </linearGradient>
    <path fill="url(#SVGID_8_)" d="M48.3 27.2c0 1.6-.8 2.9-2.3 3.5 1.1.9 1.8 2.2 1.8 3.8 0 1.5-.6 2.7-1.8 3.5-1.1.9-2.9 1.3-4.8 1.3-2.2 0-3.9-.5-5.1-1.4-1.3-.9-1.9-2.3-1.9-4.1h3.2c0 .9.3 1.7 1 2.3.7.6 1.6.8 2.9.8 1 0 1.9-.2 2.5-.6.6-.5.9-.9.9-1.7 0-.7-.3-1.3-.9-1.6-.6-.3-1.7-.8-3.3-1.4-1.6-.5-2.9-.9-3.8-1.4-.9-.5-1.5-1-1.8-1.7-.5-.7-.6-1.5-.6-2.4 0-1.6.7-2.9 2.2-3.7-.6-.5-1-.9-1.3-1.6s-.5-1.4-.5-2.2c0-1.5.6-2.6 1.8-3.5 1.3-.9 2.9-1.4 4.8-1.4 2.1 0 3.8.5 4.9 1.5 1.1 1 1.7 2.4 1.7 4.1h-3.2c0-.9-.3-1.7-.9-2.3-.7-.6-1.5-.8-2.5-.8s-1.9.2-2.5.6c-.6.5-.9 1-.9 1.7s.2 1.3.8 1.7c.6.3 1.6.8 3.3 1.3 1.7.5 3 .9 3.8 1.4.8.5 1.5 1 1.8 1.7.4.9.7 1.7.7 2.6zm-7.5-2.9c-.7-.2-1.4-.3-2.1-.7-.9.3-1.4 1-1.4 2.2 0 .7.2 1.3.7 1.6.5.3 1.3.8 2.6 1.1l2.4.7.6.2c1-.5 1.5-1.1 1.5-2.2 0-.7-.3-1.3-.9-1.7-.6-.3-1.8-.7-3.4-1.2z"/>
    <path d="M31.3 44.2c-.7.1-1.1.7-1.1 1.4 0 .9.8 1.6 1.7 1.4.8-.1 1.3-.9 1.1-1.6-.2-.8-.9-1.4-1.7-1.2zM87.6 5.7L74.9.7c-.3-.1-.7-.1-1 0l-7.6 3-5.1 2.1c-.3.1-.6.5-.7.7-.1.1-.1.3-.1.5v19.8c0 3.1 1.7 6.1 4.3 7.7l8.9 5.4c.2.1.5.2.7.2.2 0 .5-.1.7-.2l6.1-3.7 2.7-1.7h.1a9.2 9.2 0 004.3-7.7V6.9c.3-.6 0-1-.6-1.2zm-1.8 20.9c0 1.6-.7 3.2-1.7 4.3-.3.3-.8.8-1.3 1l-1.5.9-6.7 4.2-8.2-4.9a6.52 6.52 0 01-3.1-5.4V7.8l3.4-1.4 7-2.7.9-.3.9.3 8.1 3.2 2.3.9-.1 18.8z" class="st10"/>
    <path d="M81.3 40v4.1h-44c-.8 0-1.4.6-1.4 1.4 0 .8.6 1.4 1.4 1.4h44v1.9c0 1.6-1.3 2.9-2.9 2.9H24.9a2.9 2.9 0 01-2.9-2.9v-1.9h4c.8 0 1.4-.6 1.4-1.4s-.6-1.4-1.4-1.4h-4V12.8c0-1.6 1.3-2.9 2.9-2.9H57V7.1H24.9a5.6 5.6 0 00-5.6 5.6v36.2c0 3.1 2.5 5.6 5.6 5.6h22l-1.6 6.9H48l1.6-6.9h3.9l1.6 6.9H58l-1.6-6.9h22c3.1 0 5.6-2.5 5.6-5.6V38.3L81.3 40z" class="st10"/>
    <path d="M55 61.2H44.8h.1-9.5c-.8 0-1.4.6-1.4 1.4s.6 1.4 1.4 1.4h32.9c.8 0 1.4-.6 1.4-1.4s-.6-1.4-1.4-1.4H55zM48 61.5h-2.8zM55.2 61.5h2.9z" class="st10"/>
    <linearGradient id="SVGID_9_" x1="74.63" x2="74.63" y1="26.48" y2="11.72" gradientUnits="userSpaceOnUse">
      <stop offset="0" stop-color="#7abd6d"/>
      <stop offset="1" stop-color="#38b9c3"/>
    </linearGradient>
    <path fill="url(#SVGID_9_)" d="M78.8 17.2h-.5v-1.8c0-2.1-1.7-3.7-3.7-3.7-1.9 0-3.8 1.6-3.8 3.7v1.8h-.5c-.8 0-1.4.6-1.4 1.4v6.5c0 .8.6 1.4 1.4 1.4h8.4c.8 0 1.4-.6 1.4-1.4v-6.5c.1-.8-.5-1.4-1.3-1.4zm-6.6-1.8c0-1.4 1.1-2.5 2.5-2.5s2.5 1.1 2.5 2.5v1.8h-5v-1.8zm3.1 6.6v1.4c0 .3-.2.6-.6.6s-.6-.2-.6-.6V22c-.3-.2-.6-.6-.6-1 0-.7.6-1.3 1.3-1.3s1.3.6 1.3 1.3c-.1.7-.4.9-.8 1z"/>
  </g>
</svg>
